<svg xmlns="http://www.w3.org/2000/svg" version="1.1" width="19000" height="1410">
<rect x="0" y="0" width="19000" height="1410" fill="#2f2222" />
<g transform="scale(74.218750) translate(0.5 0.5)">
<ellipse fill="#ff9b6a" fill-opacity="0.501961" cx="239" cy="17" rx="13" ry="13" />
<ellipse fill="#ffb07d" fill-opacity="0.501961" cx="145" cy="18" rx="10" ry="10" />
<ellipse fill="#ffb77f" fill-opacity="0.501961" cx="120" cy="18" rx="8" ry="8" />
<ellipse fill="#001227" fill-opacity="0.501961" cx="190" cy="0" rx="38" ry="38" />
<ellipse fill="#a83d3a" fill-opacity="0.501961" cx="61" cy="18" rx="13" ry="13" />
<ellipse fill="#000710" fill-opacity="0.501961" cx="132" cy="0" rx="16" ry="16" />
<ellipse fill="#0b0000" fill-opacity="0.501961" cx="41" cy="0" rx="17" ry="17" />
<ellipse fill="#000001" fill-opacity="0.501961" cx="100" cy="0" rx="16" ry="16" />
<ellipse fill="#9c311f" fill-opacity="0.501961" cx="44" cy="16" rx="8" ry="8" />
<ellipse fill="#ff8e53" fill-opacity="0.501961" cx="242" cy="15" rx="7" ry="7" />
<ellipse fill="#090e22" fill-opacity="0.501961" cx="255" cy="7" rx="11" ry="11" />
<ellipse fill="#c95349" fill-opacity="0.501961" cx="133" cy="18" rx="8" ry="8" />
<ellipse fill="#ffb17b" fill-opacity="0.501961" cx="147" cy="15" rx="5" ry="5" />
<ellipse fill="#000f1d" fill-opacity="0.501961" cx="73" cy="0" rx="13" ry="13" />
<ellipse fill="#0c000d" fill-opacity="0.501961" cx="232" cy="6" rx="5" ry="5" />
<ellipse fill="#000c07" fill-opacity="0.501961" cx="19" cy="0" rx="16" ry="16" />
<ellipse fill="#ffa070" fill-opacity="0.501961" cx="121" cy="18" rx="6" ry="6" />
<ellipse fill="#004854" fill-opacity="0.501961" cx="194" cy="4" rx="8" ry="8" />
<ellipse fill="#7e131e" fill-opacity="0.501961" cx="188" cy="18" rx="7" ry="7" />
<ellipse fill="#1d8cb2" fill-opacity="0.501961" cx="59" cy="9" rx="4" ry="4" />
<ellipse fill="#905d63" fill-opacity="0.501961" cx="255" cy="16" rx="7" ry="7" />
<ellipse fill="#db2300" fill-opacity="0.501961" cx="64" cy="18" rx="6" ry="6" />
<ellipse fill="#bc4a0b" fill-opacity="0.501961" cx="2" cy="9" rx="4" ry="4" />
<ellipse fill="#c56343" fill-opacity="0.501961" cx="151" cy="10" rx="4" ry="4" />
<ellipse fill="#000209" fill-opacity="0.501961" cx="112" cy="0" rx="14" ry="14" />
<ellipse fill="#a52a29" fill-opacity="0.501961" cx="87" cy="18" rx="5" ry="5" />
<ellipse fill="#005e60" fill-opacity="0.501961" cx="171" cy="3" rx="5" ry="5" />
<ellipse fill="#ff9f61" fill-opacity="0.501961" cx="240" cy="7" rx="4" ry="4" />
<ellipse fill="#723421" fill-opacity="0.501961" cx="21" cy="14" rx="5" ry="5" />
<ellipse fill="#000000" fill-opacity="0.501961" cx="150" cy="0" rx="7" ry="7" />
<ellipse fill="#000107" fill-opacity="0.501961" cx="253" cy="0" rx="12" ry="12" />
<ellipse fill="#000000" fill-opacity="0.501961" cx="50" cy="0" rx="10" ry="10" />
<ellipse fill="#000009" fill-opacity="0.501961" cx="221" cy="0" rx="12" ry="12" />
<ellipse fill="#000000" fill-opacity="0.501961" cx="0" cy="3" rx="6" ry="6" />
<ellipse fill="#00a974" fill-opacity="0.501961" cx="4" cy="17" rx="3" ry="3" />
<ellipse fill="#01141a" fill-opacity="0.501961" cx="135" cy="3" rx="11" ry="11" />
<ellipse fill="#ecffe9" fill-opacity="0.501961" cx="59" cy="7" rx="2" ry="2" />
<ellipse fill="#ffd780" fill-opacity="0.501961" cx="143" cy="18" rx="4" ry="4" />
<ellipse fill="#c82400" fill-opacity="0.501961" cx="72" cy="18" rx="4" ry="4" />
<ellipse fill="#5e2f2d" fill-opacity="0.501961" cx="97" cy="18" rx="7" ry="7" />
<ellipse fill="#000b0f" fill-opacity="0.501961" cx="31" cy="4" rx="12" ry="12" />
<ellipse fill="#150000" fill-opacity="0.501961" cx="173" cy="18" rx="8" ry="8" />
<ellipse fill="#002e29" fill-opacity="0.501961" cx="92" cy="6" rx="6" ry="6" />
<ellipse fill="#ffa073" fill-opacity="0.501961" cx="117" cy="18" rx="4" ry="4" />
<ellipse fill="#ec7852" fill-opacity="0.501961" cx="228" cy="15" rx="4" ry="4" />
<ellipse fill="#001a29" fill-opacity="0.501961" cx="210" cy="14" rx="16" ry="16" />
<ellipse fill="#a82814" fill-opacity="0.501961" cx="53" cy="18" rx="6" ry="6" />
<ellipse fill="#24172e" fill-opacity="0.501961" cx="233" cy="11" rx="3" ry="3" />
<ellipse fill="#500d18" fill-opacity="0.501961" cx="142" cy="12" rx="3" ry="3" />
<ellipse fill="#d37342" fill-opacity="0.501961" cx="229" cy="11" rx="3" ry="3" />
<ellipse fill="#ff9453" fill-opacity="0.501961" cx="242" cy="16" rx="4" ry="4" />
<ellipse fill="#34152d" fill-opacity="0.501961" cx="62" cy="12" rx="3" ry="3" />
<ellipse fill="#7b4a25" fill-opacity="0.501961" cx="19" cy="9" rx="3" ry="3" />
<ellipse fill="#882403" fill-opacity="0.501961" cx="44" cy="8" rx="3" ry="3" />
<ellipse fill="#f13200" fill-opacity="0.501961" cx="49" cy="11" rx="2" ry="2" />
<ellipse fill="#ffbb7c" fill-opacity="0.501961" cx="146" cy="18" rx="5" ry="5" />
<ellipse fill="#549d81" fill-opacity="0.501961" cx="184" cy="5" rx="2" ry="2" />
<ellipse fill="#001d2d" fill-opacity="0.501961" cx="178" cy="6" rx="6" ry="6" />
<ellipse fill="#000100" fill-opacity="0.501961" cx="160" cy="1" rx="7" ry="7" />
<ellipse fill="#0c4a4a" fill-opacity="0.501961" cx="126" cy="7" rx="4" ry="4" />
<ellipse fill="#003332" fill-opacity="0.501961" cx="10" cy="15" rx="5" ry="5" />
<ellipse fill="#003f41" fill-opacity="0.501961" cx="20" cy="6" rx="3" ry="3" />
<ellipse fill="#000006" fill-opacity="0.501961" cx="52" cy="3" rx="7" ry="7" />
<ellipse fill="#000000" fill-opacity="0.501961" cx="136" cy="0" rx="6" ry="6" />
<ellipse fill="#ff864e" fill-opacity="0.501961" cx="239" cy="10" rx="4" ry="4" />
<ellipse fill="#3e101f" fill-opacity="0.501961" cx="35" cy="18" rx="7" ry="7" />
<ellipse fill="#000000" fill-opacity="0.501961" cx="62" cy="0" rx="5" ry="5" />
<ellipse fill="#561c39" fill-opacity="0.501961" cx="155" cy="15" rx="4" ry="4" />
<ellipse fill="#f0874a" fill-opacity="0.501961" cx="3" cy="11" rx="2" ry="2" />
<ellipse fill="#853230" fill-opacity="0.501961" cx="135" cy="12" rx="3" ry="3" />
<ellipse fill="#342744" fill-opacity="0.501961" cx="68" cy="9" rx="5" ry="5" />
<ellipse fill="#001111" fill-opacity="0.501961" cx="76" cy="0" rx="9" ry="9" />
<ellipse fill="#518c63" fill-opacity="0.501961" cx="85" cy="6" rx="2" ry="2" />
<ellipse fill="#aa403e" fill-opacity="0.501961" cx="114" cy="14" rx="3" ry="3" />
<ellipse fill="#ecdeb6" fill-opacity="0.501961" cx="240" cy="5" rx="2" ry="2" />
<ellipse fill="#000000" fill-opacity="0.501961" cx="11" cy="0" rx="7" ry="7" />
<ellipse fill="#ef571c" fill-opacity="0.501961" cx="4" cy="8" rx="2" ry="2" />
<ellipse fill="#6b3228" fill-opacity="0.501961" cx="78" cy="11" rx="3" ry="3" />
<ellipse fill="#000000" fill-opacity="0.501961" cx="184" cy="0" rx="4" ry="4" />
<ellipse fill="#000000" fill-opacity="0.501961" cx="90" cy="0" rx="4" ry="4" />
<ellipse fill="#033244" fill-opacity="0.501961" cx="198" cy="11" rx="6" ry="6" />
<ellipse fill="#65424b" fill-opacity="0.501961" cx="255" cy="14" rx="7" ry="7" />
<ellipse fill="#ffa375" fill-opacity="0.501961" cx="122" cy="18" rx="4" ry="4" />
<ellipse fill="#1c0309" fill-opacity="0.501961" cx="232" cy="0" rx="8" ry="8" />
<ellipse fill="#00689e" fill-opacity="0.501961" cx="63" cy="6" rx="2" ry="2" />
<ellipse fill="#009b9f" fill-opacity="0.501961" cx="141" cy="5" rx="1" ry="1" />
<ellipse fill="#ff9057" fill-opacity="0.501961" cx="240" cy="18" rx="5" ry="5" />
<ellipse fill="#000003" fill-opacity="0.501961" cx="108" cy="0" rx="11" ry="11" />
<ellipse fill="#501c12" fill-opacity="0.501961" cx="206" cy="12" rx="3" ry="3" />
<ellipse fill="#21000b" fill-opacity="0.501961" cx="194" cy="14" rx="3" ry="3" />
<ellipse fill="#000b1a" fill-opacity="0.501961" cx="166" cy="10" rx="7" ry="7" />
<ellipse fill="#006b6b" fill-opacity="0.501961" cx="194" cy="0" rx="3" ry="3" />
<ellipse fill="#00454a" fill-opacity="0.501961" cx="172" cy="3" rx="6" ry="6" />
<ellipse fill="#421b21" fill-opacity="0.501961" cx="154" cy="5" rx="3" ry="3" />
<ellipse fill="#51262f" fill-opacity="0.501961" cx="111" cy="13" rx="3" ry="3" />
<ellipse fill="#bdf0d7" fill-opacity="0.501961" cx="60" cy="7" rx="2" ry="2" />
<ellipse fill="#4d283d" fill-opacity="0.501961" cx="233" cy="14" rx="3" ry="3" />
<ellipse fill="#642e21" fill-opacity="0.501961" cx="123" cy="10" rx="3" ry="3" />
<ellipse fill="#771d03" fill-opacity="0.501961" cx="238" cy="3" rx="2" ry="2" />
<ellipse fill="#cd330a" fill-opacity="0.501961" cx="61" cy="18" rx="5" ry="5" />
<ellipse fill="#852900" fill-opacity="0.501961" cx="5" cy="6" rx="2" ry="2" />
<ellipse fill="#141323" fill-opacity="0.501961" cx="128" cy="11" rx="3" ry="3" />
<ellipse fill="#000000" fill-opacity="0.501961" cx="0" cy="4" rx="4" ry="4" />
<ellipse fill="#100000" fill-opacity="0.501961" cx="148" cy="4" rx="4" ry="4" />
<ellipse fill="#04504e" fill-opacity="0.501961" cx="157" cy="4" rx="2" ry="2" />
<ellipse fill="#141a38" fill-opacity="0.501961" cx="55" cy="10" rx="4" ry="4" />
<ellipse fill="#782828" fill-opacity="0.501961" cx="84" cy="18" rx="5" ry="5" />
<ellipse fill="#081329" fill-opacity="0.501961" cx="234" cy="10" rx="2" ry="2" />
<ellipse fill="#010a12" fill-opacity="0.501961" cx="213" cy="0" rx="11" ry="11" />
<ellipse fill="#993d33" fill-opacity="0.501961" cx="103" cy="17" rx="2" ry="2" />
<ellipse fill="#ffa165" fill-opacity="0.501961" cx="142" cy="18" rx="4" ry="4" />
<ellipse fill="#a44018" fill-opacity="0.501961" cx="19" cy="12" rx="2" ry="2" />
<ellipse fill="#00ac8f" fill-opacity="0.501961" cx="88" cy="5" rx="1" ry="1" />
<ellipse fill="#050f14" fill-opacity="0.501961" cx="85" cy="11" rx="4" ry="4" />
<ellipse fill="#0e614e" fill-opacity="0.501961" cx="94" cy="4" rx="2" ry="2" />
<ellipse fill="#d13716" fill-opacity="0.501961" cx="49" cy="12" rx="2" ry="2" />
<ellipse fill="#001e25" fill-opacity="0.501961" cx="96" cy="18" rx="3" ry="3" />
<ellipse fill="#501e2c" fill-opacity="0.501961" cx="190" cy="13" rx="4" ry="4" />
<ellipse fill="#d46b3d" fill-opacity="0.501961" cx="148" cy="10" rx="3" ry="3" />
<ellipse fill="#000d13" fill-opacity="0.501961" cx="202" cy="0" rx="5" ry="5" />
<ellipse fill="#ff946a" fill-opacity="0.501961" cx="117" cy="18" rx="4" ry="4" />
<ellipse fill="#744b39" fill-opacity="0.501961" cx="244" cy="6" rx="2" ry="2" />
<ellipse fill="#000000" fill-opacity="0.501961" cx="33" cy="0" rx="8" ry="8" />
<ellipse fill="#000000" fill-opacity="0.501961" cx="242" cy="0" rx="3" ry="3" />
<ellipse fill="#000000" fill-opacity="0.501961" cx="229" cy="0" rx="5" ry="5" />
<ellipse fill="#000000" fill-opacity="0.501961" cx="252" cy="1" rx="5" ry="5" />
<ellipse fill="#000000" fill-opacity="0.501961" cx="154" cy="1" rx="4" ry="4" />
<ellipse fill="#920900" fill-opacity="0.501961" cx="49" cy="9" rx="1" ry="1" />
<ellipse fill="#262852" fill-opacity="0.501961" cx="235" cy="2" rx="2" ry="2" />
<ellipse fill="#000000" fill-opacity="0.501961" cx="96" cy="1" rx="3" ry="3" />
<ellipse fill="#004e5a" fill-opacity="0.501961" cx="201" cy="6" rx="3" ry="3" />
<ellipse fill="#252535" fill-opacity="0.501961" cx="74" cy="8" rx="4" ry="4" />
<ellipse fill="#000000" fill-opacity="0.501961" cx="85" cy="0" rx="4" ry="4" />
<ellipse fill="#90cfa5" fill-opacity="0.501961" cx="186" cy="5" rx="1" ry="1" />
<ellipse fill="#432126" fill-opacity="0.501961" cx="154" cy="6" rx="3" ry="3" />
<ellipse fill="#552622" fill-opacity="0.501961" cx="43" cy="18" rx="7" ry="7" />
<ellipse fill="#ffa885" fill-opacity="0.501961" cx="149" cy="18" rx="4" ry="4" />
<ellipse fill="#361310" fill-opacity="0.501961" cx="5" cy="12" rx="2" ry="2" />
<ellipse fill="#000000" fill-opacity="0.501961" cx="134" cy="0" rx="7" ry="7" />
<ellipse fill="#9d392b" fill-opacity="0.501961" cx="125" cy="13" rx="2" ry="2" />
<ellipse fill="#ed7f53" fill-opacity="0.501961" cx="228" cy="16" rx="3" ry="3" />
<ellipse fill="#5d2224" fill-opacity="0.501961" cx="71" cy="12" rx="4" ry="4" />
<ellipse fill="#422b3f" fill-opacity="0.501961" cx="248" cy="11" rx="4" ry="4" />
<ellipse fill="#080a14" fill-opacity="0.501961" cx="27" cy="14" rx="3" ry="3" />
<ellipse fill="#09162b" fill-opacity="0.501961" cx="217" cy="15" rx="9" ry="9" />
<ellipse fill="#2a1c2d" fill-opacity="0.501961" cx="140" cy="10" rx="4" ry="4" />
<ellipse fill="#ab5857" fill-opacity="0.501961" cx="251" cy="18" rx="3" ry="3" />
<ellipse fill="#180f15" fill-opacity="0.501961" cx="91" cy="11" rx="5" ry="5" />
<ellipse fill="#003e47" fill-opacity="0.501961" cx="199" cy="16" rx="3" ry="3" />
<ellipse fill="#f49758" fill-opacity="0.501961" cx="149" cy="10" rx="2" ry="2" />
<ellipse fill="#001329" fill-opacity="0.501961" cx="179" cy="8" rx="5" ry="5" />
<ellipse fill="#ac4145" fill-opacity="0.501961" cx="133" cy="18" rx="4" ry="4" />
<ellipse fill="#005551" fill-opacity="0.501961" cx="188" cy="5" rx="2" ry="2" />
<ellipse fill="#3d1828" fill-opacity="0.501961" cx="109" cy="18" rx="4" ry="4" />
<ellipse fill="#004a52" fill-opacity="0.501961" cx="193" cy="4" rx="4" ry="4" />
<ellipse fill="#b64b0b" fill-opacity="0.501961" cx="2" cy="13" rx="1" ry="1" />
<ellipse fill="#220f14" fill-opacity="0.501961" cx="78" cy="18" rx="3" ry="3" />
<ellipse fill="#000000" fill-opacity="0.501961" cx="70" cy="0" rx="4" ry="4" />
<ellipse fill="#ffb875" fill-opacity="0.501961" cx="139" cy="18" rx="2" ry="2" />
<ellipse fill="#002b43" fill-opacity="0.501961" cx="221" cy="13" rx="3" ry="3" />
<ellipse fill="#000000" fill-opacity="0.501961" cx="185" cy="1" rx="3" ry="3" />
<ellipse fill="#f3843c" fill-opacity="0.501961" cx="3" cy="10" rx="2" ry="2" />
<ellipse fill="#a34134" fill-opacity="0.501961" cx="118" cy="13" rx="2" ry="2" />
<ellipse fill="#1e0c24" fill-opacity="0.501961" cx="235" cy="8" rx="2" ry="2" />
<ellipse fill="#1a0000" fill-opacity="0.501961" cx="171" cy="17" rx="5" ry="5" />
<ellipse fill="#923d23" fill-opacity="0.501961" cx="141" cy="14" rx="2" ry="2" />
<ellipse fill="#001d3b" fill-opacity="0.501961" cx="65" cy="5" rx="4" ry="4" />
<ellipse fill="#01151b" fill-opacity="0.501961" cx="36" cy="9" rx="5" ry="5" />
<ellipse fill="#63100c" fill-opacity="0.501961" cx="243" cy="5" rx="1" ry="1" />
<ellipse fill="#1a0000" fill-opacity="0.501961" cx="52" cy="10" rx="2" ry="2" />
<ellipse fill="#00171e" fill-opacity="0.501961" cx="120" cy="5" rx="4" ry="4" />
<ellipse fill="#f56d03" fill-opacity="0.501961" cx="19" cy="10" rx="1" ry="1" />
<ellipse fill="#193448" fill-opacity="0.501961" cx="142" cy="6" rx="3" ry="3" />
<ellipse fill="#000000" fill-opacity="0.501961" cx="62" cy="0" rx="4" ry="4" />
<ellipse fill="#b1cda5" fill-opacity="0.501961" cx="185" cy="5" rx="1" ry="1" />
<ellipse fill="#7b2c2a" fill-opacity="0.501961" cx="85" cy="17" rx="4" ry="4" />
<ellipse fill="#166d98" fill-opacity="0.501961" cx="57" cy="9" rx="2" ry="2" />
<ellipse fill="#56251f" fill-opacity="0.501961" cx="229" cy="7" rx="2" ry="2" />
<ellipse fill="#0b0721" fill-opacity="0.501961" cx="194" cy="11" rx="3" ry="3" />
<ellipse fill="#561525" fill-opacity="0.501961" cx="184" cy="18" rx="5" ry="5" />
<ellipse fill="#040000" fill-opacity="0.501961" cx="0" cy="5" rx="4" ry="4" />
<ellipse fill="#007a5c" fill-opacity="0.501961" cx="5" cy="18" rx="3" ry="3" />
<ellipse fill="#006356" fill-opacity="0.501961" cx="127" cy="5" rx="2" ry="2" />
<ellipse fill="#2e1311" fill-opacity="0.501961" cx="6" cy="10" rx="1" ry="1" />
<ellipse fill="#2e2039" fill-opacity="0.501961" cx="64" cy="10" rx="3" ry="3" />
<ellipse fill="#80342e" fill-opacity="0.501961" cx="148" cy="11" rx="1" ry="1" />
<ellipse fill="#479275" fill-opacity="0.501961" cx="152" cy="7" rx="1" ry="1" />
<ellipse fill="#001d21" fill-opacity="0.501961" cx="17" cy="4" rx="4" ry="4" />
<ellipse fill="#ff975a" fill-opacity="0.501961" cx="238" cy="8" rx="1" ry="1" />
<ellipse fill="#ffac73" fill-opacity="0.501961" cx="238" cy="6" rx="1" ry="1" />
<ellipse fill="#000000" fill-opacity="0.501961" cx="162" cy="0" rx="4" ry="4" />
<ellipse fill="#24040a" fill-opacity="0.501961" cx="146" cy="5" rx="4" ry="4" />
<ellipse fill="#001724" fill-opacity="0.501961" cx="249" cy="6" rx="3" ry="3" />
<ellipse fill="#00423f" fill-opacity="0.501961" cx="175" cy="0" rx="5" ry="5" />
<ellipse fill="#542927" fill-opacity="0.501961" cx="97" cy="12" rx="3" ry="3" />
<ellipse fill="#251329" fill-opacity="0.501961" cx="184" cy="14" rx="3" ry="3" />
<ellipse fill="#712023" fill-opacity="0.501961" cx="188" cy="17" rx="4" ry="4" />
<ellipse fill="#000002" fill-opacity="0.501961" cx="20" cy="0" rx="4" ry="4" />
<ellipse fill="#fc8653" fill-opacity="0.501961" cx="240" cy="15" rx="5" ry="5" />
<ellipse fill="#483125" fill-opacity="0.501961" cx="16" cy="9" rx="3" ry="3" />
<ellipse fill="#361121" fill-opacity="0.501961" cx="156" cy="9" rx="3" ry="3" />
<ellipse fill="#ff9269" fill-opacity="0.501961" cx="123" cy="17" rx="3" ry="3" />
<ellipse fill="#000000" fill-opacity="0.501961" cx="147" cy="0" rx="4" ry="4" />
<ellipse fill="#45151e" fill-opacity="0.501961" cx="36" cy="18" rx="6" ry="6" />
<ellipse fill="#61385c" fill-opacity="0.501961" cx="233" cy="18" rx="2" ry="2" />
<ellipse fill="#2f030b" fill-opacity="0.501961" cx="193" cy="16" rx="3" ry="3" />
<ellipse fill="#2f202e" fill-opacity="0.501961" cx="233" cy="11" rx="2" ry="2" />
<ellipse fill="#bb4a16" fill-opacity="0.501961" cx="43" cy="8" rx="1" ry="1" />
<ellipse fill="#16111e" fill-opacity="0.501961" cx="227" cy="9" rx="1" ry="1" />
<ellipse fill="#101a1f" fill-opacity="0.501961" cx="10" cy="11" rx="5" ry="5" />
<ellipse fill="#003437" fill-opacity="0.501961" cx="24" cy="5" rx="2" ry="2" />
<ellipse fill="#00535e" fill-opacity="0.501961" cx="141" cy="5" rx="2" ry="2" />
<ellipse fill="#0e0a1c" fill-opacity="0.501961" cx="216" cy="16" rx="5" ry="5" />
<ellipse fill="#a41e00" fill-opacity="0.501961" cx="68" cy="18" rx="4" ry="4" />
<ellipse fill="#ef8347" fill-opacity="0.501961" cx="230" cy="10" rx="1" ry="1" />
<ellipse fill="#000000" fill-opacity="0.501961" cx="117" cy="0" rx="5" ry="5" />
<ellipse fill="#68441c" fill-opacity="0.501961" cx="2" cy="15" rx="2" ry="2" />
<ellipse fill="#000001" fill-opacity="0.501961" cx="181" cy="4" rx="2" ry="2" />
<ellipse fill="#004b54" fill-opacity="0.501961" cx="199" cy="9" rx="3" ry="3" />
<ellipse fill="#380f1b" fill-opacity="0.501961" cx="255" cy="8" rx="3" ry="3" />
<ellipse fill="#54342f" fill-opacity="0.501961" cx="245" cy="9" rx="1" ry="1" />
<ellipse fill="#000c1e" fill-opacity="0.501961" cx="114" cy="7" rx="4" ry="4" />
<ellipse fill="#000000" fill-opacity="0.501961" cx="217" cy="1" rx="3" ry="3" />
<ellipse fill="#561d31" fill-opacity="0.501961" cx="59" cy="13" rx="2" ry="2" />
<ellipse fill="#934d55" fill-opacity="0.501961" cx="152" cy="13" rx="2" ry="2" />
<ellipse fill="#000006" fill-opacity="0.501961" cx="53" cy="9" rx="2" ry="2" />
<ellipse fill="#312321" fill-opacity="0.501961" cx="17" cy="16" rx="4" ry="4" />
<ellipse fill="#000000" fill-opacity="0.501961" cx="185" cy="0" rx="4" ry="4" />
<ellipse fill="#38282e" fill-opacity="0.501961" cx="157" cy="18" rx="4" ry="4" />
<ellipse fill="#190000" fill-opacity="0.501961" cx="47" cy="6" rx="3" ry="3" />
<ellipse fill="#050002" fill-opacity="0.501961" cx="169" cy="12" rx="3" ry="3" />
<ellipse fill="#000a08" fill-opacity="0.501961" cx="130" cy="0" rx="5" ry="5" />
<ellipse fill="#491413" fill-opacity="0.501961" cx="145" cy="8" rx="2" ry="2" />
<ellipse fill="#c05f41" fill-opacity="0.501961" cx="245" cy="15" rx="2" ry="2" />
<ellipse fill="#181717" fill-opacity="0.501961" cx="27" cy="11" rx="6" ry="6" />
<ellipse fill="#853936" fill-opacity="0.501961" cx="133" cy="14" rx="2" ry="2" />
<ellipse fill="#6c323a" fill-opacity="0.501961" cx="236" cy="4" rx="2" ry="2" />
<ellipse fill="#000a17" fill-opacity="0.501961" cx="203" cy="5" rx="2" ry="2" />
<ellipse fill="#7e3934" fill-opacity="0.501961" cx="101" cy="16" rx="2" ry="2" />
<ellipse fill="#002823" fill-opacity="0.501961" cx="81" cy="5" rx="3" ry="3" />
<ellipse fill="#002038" fill-opacity="0.501961" cx="163" cy="16" rx="3" ry="3" />
<ellipse fill="#772921" fill-opacity="0.501961" cx="79" cy="13" rx="2" ry="2" />
<ellipse fill="#ffab76" fill-opacity="0.501961" cx="147" cy="15" rx="3" ry="3" />
<ellipse fill="#145b4a" fill-opacity="0.501961" cx="95" cy="5" rx="2" ry="2" />
<ellipse fill="#000004" fill-opacity="0.501961" cx="245" cy="0" rx="4" ry="4" />
<ellipse fill="#000000" fill-opacity="0.501961" cx="91" cy="1" rx="3" ry="3" />
<ellipse fill="#000000" fill-opacity="0.501961" cx="5" cy="0" rx="5" ry="5" />
<ellipse fill="#170816" fill-opacity="0.501961" cx="75" cy="12" rx="2" ry="2" />
<ellipse fill="#000003" fill-opacity="0.501961" cx="137" cy="5" rx="3" ry="3" />
<ellipse fill="#000000" fill-opacity="0.501961" cx="41" cy="0" rx="5" ry="5" />
<ellipse fill="#aa260e" fill-opacity="0.501961" cx="51" cy="13" rx="2" ry="2" />
<ellipse fill="#b93100" fill-opacity="0.501961" cx="73" cy="18" rx="2" ry="2" />
<ellipse fill="#241e26" fill-opacity="0.501961" cx="129" cy="13" rx="2" ry="2" />
<ellipse fill="#802b28" fill-opacity="0.501961" cx="92" cy="18" rx="2" ry="2" />
<ellipse fill="#001212" fill-opacity="0.501961" cx="83" cy="10" rx="3" ry="3" />
<ellipse fill="#ffffda" fill-opacity="0.501961" cx="240" cy="6" rx="1" ry="1" />
<ellipse fill="#012325" fill-opacity="0.501961" cx="12" cy="14" rx="4" ry="4" />
<ellipse fill="#742a1f" fill-opacity="0.501961" cx="45" cy="14" rx="4" ry="4" />
<ellipse fill="#6e474c" fill-opacity="0.501961" cx="250" cy="15" rx="3" ry="3" />
<ellipse fill="#162843" fill-opacity="0.501961" cx="62" cy="10" rx="2" ry="2" />
<ellipse fill="#00534b" fill-opacity="0.501961" cx="88" cy="6" rx="2" ry="2" />
<ellipse fill="#190010" fill-opacity="0.501961" cx="27" cy="18" rx="3" ry="3" />
<ellipse fill="#423a40" fill-opacity="0.501961" cx="234" cy="15" rx="1" ry="1" />
<ellipse fill="#3c3f3a" fill-opacity="0.501961" cx="254" cy="12" rx="3" ry="3" />
<ellipse fill="#ffc77f" fill-opacity="0.501961" cx="145" cy="18" rx="3" ry="3" />
<ellipse fill="#592822" fill-opacity="0.501961" cx="20" cy="18" rx="5" ry="5" />
<ellipse fill="#005b5f" fill-opacity="0.501961" cx="170" cy="0" rx="3" ry="3" />
<ellipse fill="#05242e" fill-opacity="0.501961" cx="119" cy="8" rx="3" ry="3" />
<ellipse fill="#131226" fill-opacity="0.501961" cx="159" cy="14" rx="3" ry="3" />
<ellipse fill="#8d555a" fill-opacity="0.501961" cx="253" cy="18" rx="3" ry="3" />
<ellipse fill="#0095bc" fill-opacity="0.501961" cx="59" cy="9" rx="1" ry="1" />
<ellipse fill="#ff7f57" fill-opacity="0.501961" cx="229" cy="18" rx="2" ry="2" />
<ellipse fill="#000000" fill-opacity="0.501961" cx="13" cy="0" rx="4" ry="4" />
<ellipse fill="#090102" fill-opacity="0.501961" cx="0" cy="11" rx="1" ry="1" />
<ellipse fill="#562423" fill-opacity="0.501961" cx="137" cy="13" rx="2" ry="2" />
<ellipse fill="#001113" fill-opacity="0.501961" cx="100" cy="7" rx="4" ry="4" />
<ellipse fill="#461f33" fill-opacity="0.501961" cx="59" cy="12" rx="2" ry="2" />
<ellipse fill="#171c1e" fill-opacity="0.501961" cx="15" cy="15" rx="3" ry="3" />
<ellipse fill="#03192f" fill-opacity="0.501961" cx="195" cy="9" rx="3" ry="3" />
<ellipse fill="#bd553a" fill-opacity="0.501961" cx="122" cy="13" rx="2" ry="2" />
<ellipse fill="#00373d" fill-opacity="0.501961" cx="190" cy="5" rx="4" ry="4" />
<ellipse fill="#266790" fill-opacity="0.501961" cx="59" cy="10" rx="1" ry="1" />
<ellipse fill="#35222a" fill-opacity="0.501961" cx="111" cy="11" rx="2" ry="2" />
<ellipse fill="#ff8a61" fill-opacity="0.501961" cx="121" cy="15" rx="2" ry="2" />
<ellipse fill="#140814" fill-opacity="0.501961" cx="202" cy="15" rx="2" ry="2" />
<ellipse fill="#8a3938" fill-opacity="0.501961" cx="133" cy="16" rx="4" ry="4" />
<ellipse fill="#643e2e" fill-opacity="0.501961" cx="78" cy="10" rx="2" ry="2" />
<ellipse fill="#011d21" fill-opacity="0.501961" cx="95" cy="16" rx="2" ry="2" />
<ellipse fill="#000000" fill-opacity="0.501961" cx="252" cy="0" rx="5" ry="5" />
<ellipse fill="#501923" fill-opacity="0.501961" cx="87" cy="13" rx="2" ry="2" />
<ellipse fill="#000e22" fill-opacity="0.501961" cx="234" cy="10" rx="1" ry="1" />
<ellipse fill="#f26255" fill-opacity="0.501961" cx="128" cy="18" rx="1" ry="1" />
<ellipse fill="#021c2d" fill-opacity="0.501961" cx="186" cy="9" rx="3" ry="3" />
<ellipse fill="#1f1113" fill-opacity="0.501961" cx="10" cy="7" rx="4" ry="4" />
<ellipse fill="#000101" fill-opacity="0.501961" cx="0" cy="12" rx="1" ry="1" />
<ellipse fill="#ffa472" fill-opacity="0.501961" cx="117" cy="18" rx="3" ry="3" />
<ellipse fill="#032d32" fill-opacity="0.501961" cx="246" cy="4" rx="2" ry="2" />
<ellipse fill="#622424" fill-opacity="0.501961" cx="50" cy="18" rx="3" ry="3" />
<ellipse fill="#c33313" fill-opacity="0.501961" cx="57" cy="16" rx="2" ry="2" />
<ellipse fill="#833724" fill-opacity="0.501961" cx="145" cy="10" rx="1" ry="1" />
<ellipse fill="#005f5f" fill-opacity="0.501961" cx="189" cy="6" rx="2" ry="2" />
<ellipse fill="#3d1e24" fill-opacity="0.501961" cx="141" cy="12" rx="2" ry="2" />
<ellipse fill="#00011d" fill-opacity="0.501961" cx="222" cy="18" rx="3" ry="3" />
<ellipse fill="#002a2a" fill-opacity="0.501961" cx="18" cy="5" rx="3" ry="3" />
<ellipse fill="#110f25" fill-opacity="0.501961" cx="251" cy="8" rx="3" ry="3" />
<ellipse fill="#e9674f" fill-opacity="0.501961" cx="116" cy="15" rx="2" ry="2" />
<ellipse fill="#ff904f" fill-opacity="0.501961" cx="242" cy="18" rx="4" ry="4" />
<ellipse fill="#483247" fill-opacity="0.501961" cx="69" cy="8" rx="2" ry="2" />
<ellipse fill="#000000" fill-opacity="0.501961" cx="228" cy="0" rx="5" ry="5" />
<ellipse fill="#9c3031" fill-opacity="0.501961" cx="190" cy="14" rx="1" ry="1" />
<ellipse fill="#000000" fill-opacity="0.501961" cx="59" cy="0" rx="5" ry="5" />
<ellipse fill="#ff8151" fill-opacity="0.501961" cx="237" cy="10" rx="1" ry="1" />
<ellipse fill="#061629" fill-opacity="0.501961" cx="130" cy="10" rx="3" ry="3" />
<ellipse fill="#72411a" fill-opacity="0.501961" cx="42" cy="10" rx="2" ry="2" />
<ellipse fill="#080007" fill-opacity="0.501961" cx="72" cy="9" rx="1" ry="1" />
<ellipse fill="#000000" fill-opacity="0.501961" cx="149" cy="1" rx="4" ry="4" />
<ellipse fill="#f7f7d2" fill-opacity="0.501961" cx="241" cy="5" rx="1" ry="1" />
<ellipse fill="#001e38" fill-opacity="0.501961" cx="173" cy="10" rx="2" ry="2" />
<ellipse fill="#000000" fill-opacity="0.501961" cx="27" cy="0" rx="4" ry="4" />
<ellipse fill="#001620" fill-opacity="0.501961" cx="201" cy="1" rx="5" ry="5" />
<ellipse fill="#00453c" fill-opacity="0.501961" cx="92" cy="5" rx="2" ry="2" />
<ellipse fill="#260c24" fill-opacity="0.501961" cx="233" cy="5" rx="2" ry="2" />
<ellipse fill="#000000" fill-opacity="0.501961" cx="83" cy="0" rx="4" ry="4" />
<ellipse fill="#340403" fill-opacity="0.501961" cx="77" cy="14" rx="2" ry="2" />
<ellipse fill="#000000" fill-opacity="0.501961" cx="0" cy="13" rx="1" ry="1" />
<ellipse fill="#5a252c" fill-opacity="0.501961" cx="69" cy="12" rx="3" ry="3" />
<ellipse fill="#1e0005" fill-opacity="0.501961" cx="174" cy="18" rx="6" ry="6" />
<ellipse fill="#381e18" fill-opacity="0.501961" cx="6" cy="11" rx="2" ry="2" />
<ellipse fill="#162628" fill-opacity="0.501961" cx="211" cy="12" rx="3" ry="3" />
<ellipse fill="#7d200c" fill-opacity="0.501961" cx="74" cy="15" rx="1" ry="1" />
<ellipse fill="#693a3d" fill-opacity="0.501961" cx="246" cy="10" rx="2" ry="2" />
<ellipse fill="#182031" fill-opacity="0.501961" cx="74" cy="8" rx="3" ry="3" />
<ellipse fill="#6b0300" fill-opacity="0.501961" cx="52" cy="12" rx="1" ry="1" />
<ellipse fill="#69392b" fill-opacity="0.501961" cx="125" cy="12" rx="2" ry="2" />
<ellipse fill="#002b40" fill-opacity="0.501961" cx="222" cy="12" rx="3" ry="3" />
<ellipse fill="#002531" fill-opacity="0.501961" cx="176" cy="4" rx="3" ry="3" />
<ellipse fill="#021119" fill-opacity="0.501961" cx="37" cy="10" rx="3" ry="3" />
<ellipse fill="#000000" fill-opacity="0.501961" cx="96" cy="0" rx="3" ry="3" />
<ellipse fill="#2a0216" fill-opacity="0.501961" cx="145" cy="5" rx="2" ry="2" />
<ellipse fill="#3d0000" fill-opacity="0.501961" cx="47" cy="8" rx="2" ry="2" />
<ellipse fill="#00629a" fill-opacity="0.501961" cx="63" cy="7" rx="1" ry="1" />
<ellipse fill="#241002" fill-opacity="0.501961" cx="0" cy="15" rx="2" ry="2" />
<ellipse fill="#532a31" fill-opacity="0.501961" cx="112" cy="16" rx="1" ry="1" />
<ellipse fill="#001e1a" fill-opacity="0.501961" cx="77" cy="2" rx="4" ry="4" />
<ellipse fill="#ffa658" fill-opacity="0.501961" cx="228" cy="14" rx="1" ry="1" />
<ellipse fill="#4b2721" fill-opacity="0.501961" cx="226" cy="10" rx="1" ry="1" />
<ellipse fill="#79261b" fill-opacity="0.501961" cx="22" cy="16" rx="2" ry="2" />
<ellipse fill="#005666" fill-opacity="0.501961" cx="201" cy="6" rx="2" ry="2" />
<ellipse fill="#843525" fill-opacity="0.501961" cx="17" cy="18" rx="1" ry="1" />
<ellipse fill="#08171d" fill-opacity="0.501961" cx="207" cy="6" rx="5" ry="5" />
<ellipse fill="#892407" fill-opacity="0.501961" cx="43" cy="7" rx="1" ry="1" />
<ellipse fill="#00030c" fill-opacity="0.501961" cx="70" cy="0" rx="5" ry="5" />
<ellipse fill="#ffb27e" fill-opacity="0.501961" cx="123" cy="18" rx="2" ry="2" />
<ellipse fill="#7f1e01" fill-opacity="0.501961" cx="3" cy="7" rx="1" ry="1" />
<ellipse fill="#906439" fill-opacity="0.501961" cx="78" cy="9" rx="1" ry="1" />
<ellipse fill="#d76f37" fill-opacity="0.501961" cx="2" cy="12" rx="1" ry="1" />
<ellipse fill="#64896c" fill-opacity="0.501961" cx="185" cy="4" rx="1" ry="1" />
<ellipse fill="#003d44" fill-opacity="0.501961" cx="128" cy="6" rx="3" ry="3" />
<ellipse fill="#562a38" fill-opacity="0.501961" cx="65" cy="11" rx="2" ry="2" />
<ellipse fill="#51061d" fill-opacity="0.501961" cx="32" cy="18" rx="3" ry="3" />
<ellipse fill="#00061a" fill-opacity="0.501961" cx="53" cy="6" rx="3" ry="3" />
<ellipse fill="#28111b" fill-opacity="0.501961" cx="107" cy="15" rx="3" ry="3" />
<ellipse fill="#7f3c1d" fill-opacity="0.501961" cx="17" cy="11" rx="2" ry="2" />
<ellipse fill="#516045" fill-opacity="0.501961" cx="85" cy="7" rx="2" ry="2" />
<ellipse fill="#78432e" fill-opacity="0.501961" cx="244" cy="7" rx="2" ry="2" />
<ellipse fill="#001c1b" fill-opacity="0.501961" cx="88" cy="8" rx="2" ry="2" />
<ellipse fill="#00413c" fill-opacity="0.501961" cx="21" cy="6" rx="2" ry="2" />
<ellipse fill="#883512" fill-opacity="0.501961" cx="149" cy="8" rx="1" ry="1" />
<ellipse fill="#1c0f00" fill-opacity="0.501961" cx="0" cy="9" rx="1" ry="1" />
<ellipse fill="#292c25" fill-opacity="0.501961" cx="19" cy="16" rx="2" ry="2" />
<ellipse fill="#002428" fill-opacity="0.501961" cx="247" cy="7" rx="1" ry="1" />
<ellipse fill="#120d1f" fill-opacity="0.501961" cx="214" cy="9" rx="4" ry="4" />
<ellipse fill="#416c4f" fill-opacity="0.501961" cx="96" cy="5" rx="1" ry="1" />
<ellipse fill="#163f38" fill-opacity="0.501961" cx="9" cy="17" rx="2" ry="2" />
<ellipse fill="#00090c" fill-opacity="0.501961" cx="163" cy="5" rx="4" ry="4" />
<ellipse fill="#5e0700" fill-opacity="0.501961" cx="46" cy="10" rx="2" ry="2" />
<ellipse fill="#161e1e" fill-opacity="0.501961" cx="24" cy="12" rx="3" ry="3" />
<ellipse fill="#001025" fill-opacity="0.501961" cx="188" cy="7" rx="1" ry="1" />
<ellipse fill="#003743" fill-opacity="0.501961" cx="199" cy="13" rx="3" ry="3" />
<ellipse fill="#000100" fill-opacity="0.501961" cx="105" cy="0" rx="7" ry="7" />
<ellipse fill="#350506" fill-opacity="0.501961" cx="238" cy="1" rx="2" ry="2" />
<ellipse fill="#00101b" fill-opacity="0.501961" cx="111" cy="7" rx="3" ry="3" />
<ellipse fill="#651b15" fill-opacity="0.501961" cx="243" cy="4" rx="1" ry="1" />
<ellipse fill="#54282f" fill-opacity="0.501961" cx="83" cy="15" rx="2" ry="2" />
<ellipse fill="#a7322b" fill-opacity="0.501961" cx="50" cy="14" rx="2" ry="2" />
<ellipse fill="#54363b" fill-opacity="0.501961" cx="232" cy="12" rx="2" ry="2" />
<ellipse fill="#fa8953" fill-opacity="0.501961" cx="239" cy="11" rx="3" ry="3" />
<ellipse fill="#ed6b4a" fill-opacity="0.501961" cx="124" cy="15" rx="2" ry="2" />
<ellipse fill="#170505" fill-opacity="0.501961" cx="29" cy="7" rx="3" ry="3" />
<ellipse fill="#1a130e" fill-opacity="0.501961" cx="80" cy="8" rx="2" ry="2" />
<ellipse fill="#000004" fill-opacity="0.501961" cx="230" cy="1" rx="4" ry="4" />
<ellipse fill="#002231" fill-opacity="0.501961" cx="168" cy="6" rx="3" ry="3" />
<ellipse fill="#000000" fill-opacity="0.501961" cx="47" cy="0" rx="6" ry="6" />
<ellipse fill="#3c2030" fill-opacity="0.501961" cx="187" cy="12" rx="2" ry="2" />
<ellipse fill="#000000" fill-opacity="0.501961" cx="242" cy="1" rx="2" ry="2" />
<ellipse fill="#f78441" fill-opacity="0.501961" cx="150" cy="9" rx="1" ry="1" />
<ellipse fill="#e77d44" fill-opacity="0.501961" cx="228" cy="12" rx="2" ry="2" />
<ellipse fill="#443c4a" fill-opacity="0.501961" cx="73" cy="11" rx="1" ry="1" />
<ellipse fill="#f78250" fill-opacity="0.501961" cx="239" cy="8" rx="2" ry="2" />
<ellipse fill="#000407" fill-opacity="0.501961" cx="135" cy="4" rx="5" ry="5" />
<ellipse fill="#e1754d" fill-opacity="0.501961" cx="242" cy="13" rx="3" ry="3" />
<ellipse fill="#006b6d" fill-opacity="0.501961" cx="195" cy="3" rx="1" ry="1" />
<ellipse fill="#4e1a21" fill-opacity="0.501961" cx="136" cy="9" rx="1" ry="1" />
<ellipse fill="#7b342b" fill-opacity="0.501961" cx="78" cy="12" rx="1" ry="1" />
<ellipse fill="#2c1b1d" fill-opacity="0.501961" cx="37" cy="15" rx="2" ry="2" />
<ellipse fill="#804035" fill-opacity="0.501961" cx="116" cy="13" rx="2" ry="2" />
<ellipse fill="#575545" fill-opacity="0.501961" cx="152" cy="7" rx="2" ry="2" />
<ellipse fill="#2f0713" fill-opacity="0.501961" cx="155" cy="6" rx="2" ry="2" />
<ellipse fill="#2e000e" fill-opacity="0.501961" cx="154" cy="7" rx="1" ry="1" />
<ellipse fill="#98493d" fill-opacity="0.501961" cx="102" cy="18" rx="1" ry="1" />
<ellipse fill="#0d3257" fill-opacity="0.501961" cx="57" cy="7" rx="1" ry="1" />
<ellipse fill="#007263" fill-opacity="0.501961" cx="187" cy="6" rx="1" ry="1" />
<ellipse fill="#402942" fill-opacity="0.501961" cx="56" cy="11" rx="2" ry="2" />
<ellipse fill="#923e22" fill-opacity="0.501961" cx="138" cy="15" rx="1" ry="1" />
<ellipse fill="#075c4f" fill-opacity="0.501961" cx="246" cy="6" rx="1" ry="1" />
<ellipse fill="#000005" fill-opacity="0.501961" cx="249" cy="1" rx="4" ry="4" />
<ellipse fill="#052729" fill-opacity="0.501961" cx="10" cy="12" rx="3" ry="3" />
<ellipse fill="#1b2c13" fill-opacity="0.501961" cx="0" cy="18" rx="2" ry="2" />
<ellipse fill="#001a21" fill-opacity="0.501961" cx="164" cy="11" rx="3" ry="3" />
<ellipse fill="#34191b" fill-opacity="0.501961" cx="206" cy="11" rx="3" ry="3" />
<ellipse fill="#8c3500" fill-opacity="0.501961" cx="5" cy="6" rx="1" ry="1" />
<ellipse fill="#04775c" fill-opacity="0.501961" cx="4" cy="17" rx="2" ry="2" />
<ellipse fill="#003b3a" fill-opacity="0.501961" cx="87" cy="7" rx="1" ry="1" />
<ellipse fill="#002121" fill-opacity="0.501961" cx="27" cy="10" rx="2" ry="2" />
<ellipse fill="#663f4d" fill-opacity="0.501961" cx="68" cy="12" rx="1" ry="1" />
<ellipse fill="#000e1c" fill-opacity="0.501961" cx="203" cy="5" rx="1" ry="1" />
<ellipse fill="#000000" fill-opacity="0.501961" cx="162" cy="0" rx="4" ry="4" />
<ellipse fill="#170e13" fill-opacity="0.501961" cx="91" cy="12" rx="3" ry="3" />
<ellipse fill="#643027" fill-opacity="0.501961" cx="97" cy="13" rx="2" ry="2" />
<ellipse fill="#5f0700" fill-opacity="0.501961" cx="51" cy="11" rx="1" ry="1" />
<ellipse fill="#001630" fill-opacity="0.501961" cx="211" cy="18" rx="4" ry="4" />
<ellipse fill="#dc6d4b" fill-opacity="0.501961" cx="142" cy="15" rx="1" ry="1" />
<ellipse fill="#d0532f" fill-opacity="0.501961" cx="242" cy="8" rx="1" ry="1" />
<ellipse fill="#bd4811" fill-opacity="0.501961" cx="19" cy="11" rx="1" ry="1" />
<ellipse fill="#132555" fill-opacity="0.501961" cx="234" cy="3" rx="1" ry="1" />
<ellipse fill="#370e03" fill-opacity="0.501961" cx="45" cy="9" rx="1" ry="1" />
<ellipse fill="#532935" fill-opacity="0.501961" cx="111" cy="17" rx="2" ry="2" />
<ellipse fill="#ff9770" fill-opacity="0.501961" cx="122" cy="16" rx="2" ry="2" />
<ellipse fill="#86281d" fill-opacity="0.501961" cx="23" cy="18" rx="1" ry="1" />
<ellipse fill="#4d2527" fill-opacity="0.501961" cx="111" cy="13" rx="2" ry="2" />
<ellipse fill="#934b4a" fill-opacity="0.501961" cx="248" cy="15" rx="2" ry="2" />
<ellipse fill="#452023" fill-opacity="0.501961" cx="142" cy="12" rx="2" ry="2" />
<ellipse fill="#6a4441" fill-opacity="0.501961" cx="232" cy="10" rx="1" ry="1" />
<ellipse fill="#1c0018" fill-opacity="0.501961" cx="179" cy="14" rx="3" ry="3" />
<ellipse fill="#c46631" fill-opacity="0.501961" cx="238" cy="5" rx="1" ry="1" />
<ellipse fill="#1e3041" fill-opacity="0.501961" cx="74" cy="7" rx="2" ry="2" />
<ellipse fill="#6a2216" fill-opacity="0.501961" cx="243" cy="5" rx="1" ry="1" />
<ellipse fill="#9b4617" fill-opacity="0.501961" cx="43" cy="9" rx="1" ry="1" />
<ellipse fill="#27181f" fill-opacity="0.501961" cx="205" cy="14" rx="3" ry="3" />
<ellipse fill="#2f0302" fill-opacity="0.501961" cx="194" cy="18" rx="2" ry="2" />
<ellipse fill="#77835d" fill-opacity="0.501961" cx="85" cy="7" rx="1" ry="1" />
<ellipse fill="#aa505e" fill-opacity="0.501961" cx="152" cy="15" rx="2" ry="2" />
<ellipse fill="#3c1426" fill-opacity="0.501961" cx="155" cy="14" rx="2" ry="2" />
<ellipse fill="#000504" fill-opacity="0.501961" cx="182" cy="2" rx="3" ry="3" />
<ellipse fill="#7c3c2f" fill-opacity="0.501961" cx="134" cy="12" rx="2" ry="2" />
<ellipse fill="#943a29" fill-opacity="0.501961" cx="144" cy="13" rx="1" ry="1" />
<ellipse fill="#37292b" fill-opacity="0.501961" cx="160" cy="18" rx="2" ry="2" />
<ellipse fill="#653125" fill-opacity="0.501961" cx="99" cy="14" rx="2" ry="2" />
<ellipse fill="#005f65" fill-opacity="0.501961" cx="158" cy="5" rx="1" ry="1" />
<ellipse fill="#954620" fill-opacity="0.501961" cx="148" cy="8" rx="1" ry="1" />
<ellipse fill="#00606a" fill-opacity="0.501961" cx="200" cy="7" rx="2" ry="2" />
<ellipse fill="#ff9943" fill-opacity="0.501961" cx="2" cy="10" rx="1" ry="1" />
<ellipse fill="#001829" fill-opacity="0.501961" cx="71" cy="5" rx="2" ry="2" />
<ellipse fill="#b4291f" fill-opacity="0.501961" cx="48" cy="13" rx="1" ry="1" />
<ellipse fill="#6d3f2c" fill-opacity="0.501961" cx="226" cy="12" rx="1" ry="1" />
<ellipse fill="#bf5b3d" fill-opacity="0.501961" cx="139" cy="16" rx="1" ry="1" />
<ellipse fill="#000003" fill-opacity="0.501961" cx="105" cy="8" rx="4" ry="4" />
<ellipse fill="#001c21" fill-opacity="0.501961" cx="130" cy="4" rx="2" ry="2" />
<ellipse fill="#001522" fill-opacity="0.501961" cx="222" cy="6" rx="4" ry="4" />
<ellipse fill="#001818" fill-opacity="0.501961" cx="85" cy="4" rx="2" ry="2" />
<ellipse fill="#1a0f13" fill-opacity="0.501961" cx="102" cy="12" rx="3" ry="3" />
<ellipse fill="#27241f" fill-opacity="0.501961" cx="15" cy="12" rx="2" ry="2" />
<ellipse fill="#693822" fill-opacity="0.501961" cx="42" cy="14" rx="2" ry="2" />
<ellipse fill="#ae5a33" fill-opacity="0.501961" cx="141" cy="14" rx="1" ry="1" />
<ellipse fill="#061b27" fill-opacity="0.501961" cx="197" cy="11" rx="2" ry="2" />
<ellipse fill="#594f50" fill-opacity="0.501961" cx="252" cy="15" rx="2" ry="2" />
<ellipse fill="#49051c" fill-opacity="0.501961" cx="180" cy="18" rx="2" ry="2" />
<ellipse fill="#000000" fill-opacity="0.501961" cx="88" cy="0" rx="4" ry="4" />
<ellipse fill="#002c28" fill-opacity="0.501961" cx="97" cy="4" rx="2" ry="2" />
<ellipse fill="#7e341a" fill-opacity="0.501961" cx="18" cy="9" rx="1" ry="1" />
<ellipse fill="#2c1d19" fill-opacity="0.501961" cx="123" cy="9" rx="2" ry="2" />
<ellipse fill="#005655" fill-opacity="0.501961" cx="127" cy="6" rx="2" ry="2" />
<ellipse fill="#004342" fill-opacity="0.501961" cx="174" cy="0" rx="4" ry="4" />
<ellipse fill="#00030d" fill-opacity="0.501961" cx="115" cy="6" rx="4" ry="4" />
<ellipse fill="#060000" fill-opacity="0.501961" cx="34" cy="2" rx="4" ry="4" />
<ellipse fill="#000913" fill-opacity="0.501961" cx="81" cy="10" rx="1" ry="1" />
<ellipse fill="#380a05" fill-opacity="0.501961" cx="238" cy="2" rx="2" ry="2" />
<ellipse fill="#00192d" fill-opacity="0.501961" cx="203" cy="7" rx="1" ry="1" />
<ellipse fill="#a31d00" fill-opacity="0.501961" cx="66" cy="18" rx="3" ry="3" />
<ellipse fill="#110701" fill-opacity="0.501961" cx="0" cy="12" rx="1" ry="1" />
<ellipse fill="#d43602" fill-opacity="0.501961" cx="62" cy="18" rx="2" ry="2" />
<ellipse fill="#956b4f" fill-opacity="0.501961" cx="151" cy="8" rx="1" ry="1" />
<ellipse fill="#7e3c31" fill-opacity="0.501961" cx="79" cy="13" rx="1" ry="1" />
<ellipse fill="#4f2718" fill-opacity="0.501961" cx="46" cy="17" rx="2" ry="2" />
<ellipse fill="#3b141e" fill-opacity="0.501961" cx="74" cy="13" rx="1" ry="1" />
<ellipse fill="#4a2636" fill-opacity="0.501961" cx="253" cy="10" rx="2" ry="2" />
<ellipse fill="#1a0d1f" fill-opacity="0.501961" cx="215" cy="13" rx="3" ry="3" />
<ellipse fill="#481d20" fill-opacity="0.501961" cx="24" cy="14" rx="1" ry="1" />
<ellipse fill="#001e2f" fill-opacity="0.501961" cx="180" cy="7" rx="3" ry="3" />
<ellipse fill="#4d2b27" fill-opacity="0.501961" cx="116" cy="12" rx="1" ry="1" />
</g>
</svg>